<svg xmlns="http://www.w3.org/2000/svg" viewBox="0 0 24 24" width="24" height="24">
                            <path d="M12 8a4 4 0 100 8 4 4 0 000-8zm0-6a2 2 0 012 2v1.09a7.941 7.941 0 013.064 1.28l.77-.77a2 2 0 012.828 0l.004.004a2 2 0 010 2.828l-.769.77A7.947 7.947 0 0120.91 10H22a2 2 0 012 2v.004a2 2 0 01-2 2h-1.09a7.947 7.947 0 01-1.28 3.064l.77.769a2 2 0 010 2.828l-.004.004a2 2 0 01-2.828 0l-.77-.769A7.941 7.941 0 0114 20.91V22a2 2 0 01-2 2h-.004a2 2 0 01-2-2v-1.09a7.941 7.941 0 01-3.064-1.28l-.769.77a2 2 0 01-2.828 0l-.004-.004a2 2 0 010-2.828l.77-.77A7.947 7.947 0 013.09 14H2a2 2 0 01-2-2v-.004A2 2 0 012 10h1.09a7.947 7.947 0 011.28-3.064l-.77-.77a2 2 0 010-2.828L3.09 2.062A2 2 0 015.918 2.063l.77.77A7.941 7.941 0 0110 3.09V2a2 2 0 012-2zm0 4a6 6 0 100 12 6 6 0 000-12z" />
                        </svg>